<svg class="circles" version="1.1" x="2" y="2" viewBox="0 0 644 644"> <style
type="text/css"> .st0{fill:url(#circle-1_2_);} .st1{fill:url(#circle-2_2_);}
.st2{fill:url(#circle-3_2_);} .st3{fill:url(#circle-4_2_);}
.st4{fill:url(#circle-5_2_);} .st6{fill:url(#circle-1_3_);}
.st7{fill:url(#circle-2_3_);} .st8{fill:url(#circle-3_3_);}
.st9{fill:url(#circle-4_3_);} .st10{fill:url(#circle-5_3_);} </style>
<linearGradient id="circle-1_2_" gradientUnits="userSpaceOnUse" x1="2.4969"
y1="642.0031" x2="2.4969" y2="641.0031" gradientTransform="matrix(644 0 0 -644
-1286 413450)"> <stop offset="0"
style="stop-color:#fff;stop-opacity:0.6"></stop> <stop offset="0.223"
style="stop-color:#fff"></stop> <stop offset="0.3525"
style="stop-color:#fff"></stop> <stop offset="0.489"
style="stop-color:#fff"></stop> <stop offset="0.594"
style="stop-color:#fff"></stop> <stop offset="0.654"
style="stop-color:#fff"></stop> <stop offset="0.8364"
style="stop-color:#fff;stop-opacity:0.8946"></stop> <stop offset="1"
style="stop-color:#fff;stop-opacity:0.8"></stop> </linearGradient> <path id="c1"
class="st0"
d="M322,644C144.2,644,0,499.8,0,322S144.2,0,322,0s322,144.2,322,322S499.8,644,322,644z
M322,642c176.7,0,320-143.3,320-320S498.7,2,322,2S2,145.3,2,322S145.3,642,322,642z"></path>

<linearGradient id="circle-2_2_" gradientUnits="userSpaceOnUse" x1="2.4966"
y1="642.0034" x2="2.4966" y2="641.0034" gradienttran"matrix(588="" 0="" -588=""
-1147="" 377526)"=""> <stop offset="0"
style="stop-color:#fff;stop-opacity:0.6"></stop> <stop offset="0.223"
style="stop-color:#fff"></stop> <stop offset="0.3525"
style="stop-color:#fff"></stop> <stop offset="0.489"
style="stop-color:#fff"></stop> <stop offset="0.594"
style="stop-color:#fff"></stop> <stop offset="0.654"
style="stop-color:#fff"></stop> <stop offset="0.8364"
style="stop-color:#fff;stop-opacity:0.8946"></stop> <stop offset="1"
style="stop-color:#fff;stop-opacity:0.8"></stop> </linearGradient> <path id="c2"
class="st1"
d="M321,616C158.6,616,27,484.4,27,322S158.6,28,321,28s294,131.6,294,294S483.4,616,321,616z
M321,614.2c161.4,0,292.2-130.8,292.2-292.2S482.4,29.8,321,29.8S28.8,160.6,28.8,322S159.6,614.2,321,614.2z"></path>

<linearGradient id="circle-3_2_" gradientUnits="userSpaceOnUse" x1="2.4963"
y1="642.0037" x2="2.4963" y2="641.0037" gradientTransform="matrix(536 0 0 -536
-1016 344168)"> <stop offset="0"
style="stop-color:#fff;stop-opacity:0.6"></stop> <stop offset="0.223"
style="stop-color:#fff"></stop> <stop offset="0.3525"
style="stop-color:#fff"></stop> <stop offset="0.489"
style="stop-color:#fff"></stop> <stop offset="0.594"
style="stop-color:#fff"></stop> <stop offset="0.654"
style="stop-color:#fff"></stop> <stop offset="0.8364"
style="stop-color:#fff;stop-opacity:0.8946"></stop> <stop offset="1"
style="stop-color:#907CB2;stop-opacity:0.8"></stop> </linearGradient> <path
id="c3" class="st2"
d="M322,590C174,590,54,470,54,322S174,54,322,54s268,120,268,268S470,590,322,590z
M322,588.3
c147.1,0,266.3-119.2,266.3-266.3S469.1,55.7,322,55.7S55.7,174.9,55.7,322S174.9,588.3,322,588.3z"></path>

<linearGradient id="circle-4_2_" gradientUnits="userSpaceOnUse" x1="2.4959"
y1="642.0042" x2="2.4959" y2="641.0042" gradientTransform="matrix(485 0 0 -485
-889 311452)"> <stop offset="0" style="stop-color:#fff;stop-opacity:0.6"></stop>
<stop offset="0.223" style="stop-color:#fff"></stop> <stop offset="0.3525"
style="stop-color:#fff"></stop> <stop offset="0.489"
style="stop-color:#fff"></stop> <stop offset="0.594"
style="stop-color:#fff"></stop> <stop offset="0.654"
style="stop-color:#fff"></stop> <stop offset="0.8364"
style="stop-color:#fff;stop-opacity:0.8946"></stop> <stop offset="1"
style="stop-color:#fff;stop-opacity:0.8"></stop> </linearGradient> <path id="c4"
class="st3"
d="M321.5,565C187.6,565,79,456.4,79,322.5S187.6,80,321.5,80S564,188.6,564,322.5
S455.4,565,321.5,565z
M321.5,563.5c133.1,0,241-107.9,241-241s-107.9-241-241-241s-241,107.9-241,241S188.4,563.5,321.5,563.5z"></path>

<linearGradient id="circle-5_2_" gradientUnits="userSpaceOnUse" x1="2.4953"
y1="642.0047" x2="2.4953" y2="641.0047" gradientTransform="matrix(427 0 0 -427
-743 274245)"> <stop offset="0" style="stop-color:#fff;stop-opacity:0.6"></stop>
<stop offset="0.223" style="stop-color:#fff"></stop> <stop offset="0.3525"
style="stop-color:#fff"></stop> <stop offset="0.489"
style="stop-color:#fff"></stop> <stop offset="0.594"
style="stop-color:#fff"></stop> <stop offset="0.654"
style="stop-color:#fff"></stop> <stop offset="0.8364"
style="stop-color:#fff;stop-opacity:0.8946"></stop> <stop offset="1"
style="stop-color:#fff;stop-opacity:0.8"></stop> </linearGradient> <path id="c5"
class="st4"
d="M322.5,536C204.6,536,109,440.4,109,322.5S204.6,109,322.5,109S536,204.6,536,322.5
S440.4,536,322.5,536z
M322.5,534.7c117.2,0,212.2-95,212.2-212.2s-95-212.2-212.2-212.2s-212.2,95-212.2,212.2
S205.3,534.7,322.5,534.7z"></path>

</svg>
