<svg width="644" height="644" viewBox="0 0 644 644" fill="none" xmlns="http://www.w3.org/2000/svg">
<path d="M310 256.6C308.8 253.2 306.7 250.6 304.5 248.8C300.8 246 296.7 245.7 293.3 245.7C289.6 245.7 284.8 246.3 280.7 249.9C277.7 252.6 275.5 257.1 275.5 261.7C275.5 264.8 276.7 268.1 279.7 270.8C281.6 272.6 286 275 288.1 276L297.1 280.2C301.7 282.3 306.2 285 309.8 288.7C315.5 294.5 316.5 299.8 316.5 306.2C316.5 312 315.5 321.2 308.1 328.8C299.7 337.5 289.2 338.4 282.2 338.4C274.1 338.4 267.5 336.9 261.6 330.9C257.3 326.4 254 319.8 253.2 312.6L264.3 309.6C264.6 314.7 266.5 319.3 269.7 322.6C274 327.1 279 327.8 283.9 327.8C288.7 327.8 294.8 327.1 299.5 322.3C303.2 318.4 304.9 312.6 304.9 307.8C304.9 301.8 302.2 297.5 299.5 295.1C297.6 293.3 292.9 290.6 289.8 289.1L281.9 285.4C279.2 284.2 273.4 281.2 270.1 277.8C267.4 275 264.4 270.2 264.4 262.4C264.4 255.4 266.5 249.1 272.2 243.5C278.5 237.4 285.8 235.1 294.2 235.1C298.5 235.1 305.3 235.7 310.7 239.3C314.6 241.8 317.9 246 319.7 250.7L310 256.6Z" fill="white"/>
<path d="M327.2 189.1L315 288.9H303.9L316.2 189.1H327.2V189.1Z" fill="white"/>
<path d="M370.4 307.3H403.6L403.3 309.7C402.1 319 399.4 332.9 388.6 344.4C378.4 355.3 365.9 359.2 352.1 359.2C339.5 359.2 327.6 355.6 318 346C310.7 338.7 304.8 327.9 304.8 312.6C304.8 294.8 312.1 281 321.3 271.9C333.3 259.8 347 255.9 362.5 255.9C372.1 255.9 380.5 257.5 388.7 262.8C395.7 267.1 400.1 272.7 402.9 277.6L393.8 285.1C391.1 279.7 387.4 275.4 381.7 271.8C375.9 268.1 370 266.4 362.4 266.4C346.1 266.4 335.5 273.1 329.6 278.8C320.5 287.9 316.3 301.1 316.3 312.3C316.3 322.3 320.2 331.9 326.6 338.5C334.5 346.7 344.3 348.7 353.2 348.7C361.4 348.7 371.5 347.2 379.8 338.5C385.5 332.8 388.9 324.9 390.4 317.7H369.1L370.4 307.3Z" fill="white"/>
<path d="M240.4 416.7L253.1 312.7L313.2 385.2L330.7 346.5L337.7 348.4L308.1 396.4L260.9 339.4L251.5 416.8H240.4V416.7Z" fill="white"/>
<path d="M376.8 345.1L367.5 420.8H395L393.7 431.3H355.1L365.1 349.9L376.8 345.1Z" fill="white"/>
<path d="M334.6 350.1L334 348.3L330.5 347.9L328.2 347.4L326.9 349.5L273 445H285.5L300.9 417.3L306.6 407.1L328.5 367.3L340.4 407.3L343.4 417.3L351.7 445H363.6L334.6 350.1Z" fill="white"/>
</svg>
