<svg version="1.1" x="2" y="2" viewBox="0 0 644 644">
<g>
<path class="st5" d="M310,256.6c-1.2-3.4-3.3-6-5.5-7.8c-3.7-2.8-7.8-3.1-11.2-3.1c-3.7,0-8.5,0.6-12.6,4.2
c-3,2.7-5.2,7.2-5.2,11.8c0,3.1,1.2,6.4,4.2,9.1c1.9,1.8,6.3,4.2,8.4,5.2l9,4.2c4.6,2.1,9.1,4.8,12.7,8.5
c5.7,5.8,6.7,11.1,6.7,17.5c0,5.8-1,15-8.4,22.6c-8.4,8.7-18.9,9.6-25.9,9.6c-8.1,0-14.7-1.5-20.6-7.5c-4.3-4.5-7.6-11.1-8.4-18.3
l11.1-3c0.3,5.1,2.2,9.7,5.4,13c4.3,4.5,9.3,5.2,14.2,5.2c4.8,0,10.9-0.7,15.6-5.5c3.7-3.9,5.4-9.7,5.4-14.5
c0-6-2.7-10.3-5.4-12.7c-1.9-1.8-6.6-4.5-9.7-6l-7.9-3.7c-2.7-1.2-8.5-4.2-11.8-7.6c-2.7-2.8-5.7-7.6-5.7-15.4
c0-7,2.1-13.3,7.8-18.9c6.3-6.1,13.6-8.4,22-8.4c4.3,0,11.1,0.6,16.5,4.2c3.9,2.5,7.2,6.7,9,11.4L310,256.6z"></path>
<path class="st5" d="M327.2,189.1L315,288.9h-11.1l12.3-99.8H327.2z"></path>
<path class="st5" d="M370.4,307.3l33.2,0l-0.3,2.4c-1.2,9.3-3.9,23.2-14.7,34.7c-10.2,10.9-22.7,14.8-36.5,14.8
c-12.6,0-24.5-3.6-34.1-13.2c-7.3-7.3-13.2-18.1-13.2-33.4c0-17.8,7.3-31.6,16.5-40.7c12-12.1,25.7-16,41.2-16
c9.6,0,18,1.6,26.2,6.9c7,4.3,11.4,9.9,14.2,14.8l-9.1,7.5c-2.7-5.4-6.4-9.7-12.1-13.3c-5.8-3.7-11.7-5.4-19.3-5.4
c-16.3,0-26.9,6.7-32.8,12.4c-9.1,9.1-13.3,22.3-13.3,33.5c0,10,3.9,19.6,10.3,26.2c7.9,8.2,17.7,10.2,26.6,10.2
c8.2,0,18.3-1.5,26.6-10.2c5.7-5.7,9.1-13.6,10.6-20.8l-21.3,0L370.4,307.3z"></path>
<path class="st5" d="M240.4,416.7l12.7-104l60.1,72.5l17.5-38.7l7,1.9l-29.6,48l-47.2-57l-9.4,77.4H240.4z"></path>
<path class="st5" d="M376.8,345.1l-9.3,75.7h27.5l-1.3,10.5h-38.6l10-81.4L376.8,345.1z"></path>
<polygon class="st5" points="334.6,350.1 334,348.3 330.5,347.9 328.2,347.4 326.9,349.5 273,445 285.5,445 300.9,417.3
306.6,407.1 328.5,367.3 340.4,407.3 343.4,417.3 351.7,445 363.6,445   "></polygon>
</g>
</svg>
